<mxfile host="Electron" agent="Mozilla/5.0 (Windows NT 10.0; Win64; x64) AppleWebKit/537.36 (KHTML, like Gecko) draw.io/26.2.15 Chrome/134.0.6998.205 Electron/35.2.1 Safari/537.36" version="26.2.15">
  <diagram name="PÃ¡gina-1" id="s4EjuR_SOuWsDBFr8Wqq">
    <mxGraphModel dx="2484" dy="1252" grid="0" gridSize="10" guides="1" tooltips="1" connect="1" arrows="1" fold="1" page="0" pageScale="1" pageWidth="827" pageHeight="1169" math="0" shadow="0">
      <root>
        <mxCell id="0" />
        <mxCell id="1" parent="0" />
        <mxCell id="fZHhxiA2aUK1aU4LnNNK-13" value="&lt;font style=&quot;font-size: 19px;&quot;&gt;Tela Usuario&lt;/font&gt;" style="rounded=1;whiteSpace=wrap;html=1;" vertex="1" parent="1">
          <mxGeometry x="256" y="333" width="120" height="60" as="geometry" />
        </mxCell>
        <mxCell id="fZHhxiA2aUK1aU4LnNNK-15" value="" style="group" vertex="1" connectable="0" parent="1">
          <mxGeometry x="352" y="448" width="284" height="170" as="geometry" />
        </mxCell>
        <mxCell id="fZHhxiA2aUK1aU4LnNNK-8" value="Editora" style="shape=partialRectangle;connectable=0;fillColor=none;top=0;left=0;bottom=0;right=0;align=left;spacingLeft=6;overflow=hidden;whiteSpace=wrap;html=1;" vertex="1" parent="fZHhxiA2aUK1aU4LnNNK-15">
          <mxGeometry x="126.22222222222229" y="100" width="157.7777777777778" height="30" as="geometry">
            <mxRectangle width="150" height="30" as="alternateBounds" />
          </mxGeometry>
        </mxCell>
        <mxCell id="fZHhxiA2aUK1aU4LnNNK-9" value="Autor" style="shape=partialRectangle;connectable=0;fillColor=none;top=0;left=0;bottom=0;right=0;align=left;spacingLeft=6;overflow=hidden;whiteSpace=wrap;html=1;" vertex="1" parent="fZHhxiA2aUK1aU4LnNNK-15">
          <mxGeometry x="126.22222222222229" width="157.7777777777778" height="30" as="geometry">
            <mxRectangle width="150" height="30" as="alternateBounds" />
          </mxGeometry>
        </mxCell>
        <mxCell id="fZHhxiA2aUK1aU4LnNNK-14" value="" style="group" vertex="1" connectable="0" parent="fZHhxiA2aUK1aU4LnNNK-15">
          <mxGeometry y="4" width="236.6666666666667" height="166" as="geometry" />
        </mxCell>
        <mxCell id="fZHhxiA2aUK1aU4LnNNK-1" value="&lt;div&gt;&lt;span style=&quot;font-size: 16px; background-color: transparent; color: light-dark(rgb(0, 0, 0), rgb(255, 255, 255));&quot;&gt;Tabela&lt;/span&gt;&lt;/div&gt;&lt;div&gt;&lt;font style=&quot;font-size: 16px;&quot;&gt;&amp;nbsp;&lt;/font&gt;&lt;span style=&quot;font-size: 16px; background-color: transparent; color: light-dark(rgb(0, 0, 0), rgb(255, 255, 255));&quot;&gt;LIVRO&lt;/span&gt;&lt;/div&gt;" style="rounded=1;whiteSpace=wrap;html=1;align=center;" vertex="1" parent="fZHhxiA2aUK1aU4LnNNK-14">
          <mxGeometry width="126.22222222222229" height="60" as="geometry" />
        </mxCell>
        <mxCell id="fZHhxiA2aUK1aU4LnNNK-2" value="Genero livro" style="text;strokeColor=none;fillColor=none;spacingLeft=4;spacingRight=4;overflow=hidden;rotatable=0;points=[[0,0.5],[1,0.5]];portConstraint=eastwest;fontSize=12;whiteSpace=wrap;html=1;" vertex="1" parent="fZHhxiA2aUK1aU4LnNNK-14">
          <mxGeometry x="126.22222222222229" y="36" width="86.25185185185185" height="30" as="geometry" />
        </mxCell>
        <mxCell id="fZHhxiA2aUK1aU4LnNNK-3" value="Nome Livro" style="text;strokeColor=none;fillColor=none;spacingLeft=4;spacingRight=4;overflow=hidden;rotatable=0;points=[[0,0.5],[1,0.5]];portConstraint=eastwest;fontSize=12;whiteSpace=wrap;html=1;" vertex="1" parent="fZHhxiA2aUK1aU4LnNNK-14">
          <mxGeometry x="126.22222222222229" y="15" width="86.25185185185185" height="30" as="geometry" />
        </mxCell>
        <mxCell id="fZHhxiA2aUK1aU4LnNNK-7" value="Qntd Paginas" style="shape=partialRectangle;connectable=0;fillColor=none;top=0;left=0;bottom=0;right=0;align=left;spacingLeft=6;overflow=hidden;whiteSpace=wrap;html=1;" vertex="1" parent="fZHhxiA2aUK1aU4LnNNK-14">
          <mxGeometry x="125.17037037037039" y="74" width="97.82222222222224" height="30" as="geometry">
            <mxRectangle width="150" height="30" as="alternateBounds" />
          </mxGeometry>
        </mxCell>
        <mxCell id="fZHhxiA2aUK1aU4LnNNK-10" value="Data Pub" style="text;strokeColor=none;fillColor=none;spacingLeft=4;spacingRight=4;overflow=hidden;rotatable=0;points=[[0,0.5],[1,0.5]];portConstraint=eastwest;fontSize=12;whiteSpace=wrap;html=1;" vertex="1" parent="fZHhxiA2aUK1aU4LnNNK-14">
          <mxGeometry x="126.22222222222229" y="117" width="72.57777777777777" height="30" as="geometry" />
        </mxCell>
        <mxCell id="fZHhxiA2aUK1aU4LnNNK-11" value="Quantidade Disp" style="text;strokeColor=none;fillColor=none;spacingLeft=4;spacingRight=4;overflow=hidden;rotatable=0;points=[[0,0.5],[1,0.5]];portConstraint=eastwest;fontSize=12;whiteSpace=wrap;html=1;" vertex="1" parent="fZHhxiA2aUK1aU4LnNNK-14">
          <mxGeometry x="126.22222222222229" y="136" width="110.44444444444447" height="30" as="geometry" />
        </mxCell>
        <mxCell id="fZHhxiA2aUK1aU4LnNNK-12" value="Idioma" style="text;strokeColor=none;fillColor=none;spacingLeft=4;spacingRight=4;overflow=hidden;rotatable=0;points=[[0,0.5],[1,0.5]];portConstraint=eastwest;fontSize=12;whiteSpace=wrap;html=1;" vertex="1" parent="fZHhxiA2aUK1aU4LnNNK-14">
          <mxGeometry x="126.22222222222229" y="56" width="52.59259259259261" height="30" as="geometry" />
        </mxCell>
        <mxCell id="fZHhxiA2aUK1aU4LnNNK-28" value="" style="group" vertex="1" connectable="0" parent="1">
          <mxGeometry x="-74" y="102" width="292" height="195" as="geometry" />
        </mxCell>
        <mxCell id="fZHhxiA2aUK1aU4LnNNK-16" value="&lt;font style=&quot;font-size: 17px;&quot;&gt;tabela&lt;/font&gt;&lt;div&gt;&lt;font style=&quot;font-size: 17px;&quot;&gt;Nova Reserva&lt;/font&gt;&lt;/div&gt;" style="rounded=1;whiteSpace=wrap;html=1;" vertex="1" parent="fZHhxiA2aUK1aU4LnNNK-28">
          <mxGeometry y="6" width="120" height="60" as="geometry" />
        </mxCell>
        <mxCell id="fZHhxiA2aUK1aU4LnNNK-17" value="Nome Reserva" style="text;strokeColor=none;fillColor=none;spacingLeft=4;spacingRight=4;overflow=hidden;rotatable=0;points=[[0,0.5],[1,0.5]];portConstraint=eastwest;fontSize=12;whiteSpace=wrap;html=1;" vertex="1" parent="fZHhxiA2aUK1aU4LnNNK-28">
          <mxGeometry x="120" width="171" height="30" as="geometry" />
        </mxCell>
        <mxCell id="fZHhxiA2aUK1aU4LnNNK-19" value="Idioma" style="text;strokeColor=none;fillColor=none;spacingLeft=4;spacingRight=4;overflow=hidden;rotatable=0;points=[[0,0.5],[1,0.5]];portConstraint=eastwest;fontSize=12;whiteSpace=wrap;html=1;" vertex="1" parent="fZHhxiA2aUK1aU4LnNNK-28">
          <mxGeometry x="120" y="62" width="171" height="30" as="geometry" />
        </mxCell>
        <mxCell id="fZHhxiA2aUK1aU4LnNNK-20" value="Qnd foi Entregue" style="text;strokeColor=none;fillColor=none;spacingLeft=4;spacingRight=4;overflow=hidden;rotatable=0;points=[[0,0.5],[1,0.5]];portConstraint=eastwest;fontSize=12;whiteSpace=wrap;html=1;" vertex="1" parent="fZHhxiA2aUK1aU4LnNNK-28">
          <mxGeometry x="121" y="145" width="171" height="30" as="geometry" />
        </mxCell>
        <mxCell id="fZHhxiA2aUK1aU4LnNNK-21" value="Genero Livro" style="text;strokeColor=none;fillColor=none;spacingLeft=4;spacingRight=4;overflow=hidden;rotatable=0;points=[[0,0.5],[1,0.5]];portConstraint=eastwest;fontSize=12;whiteSpace=wrap;html=1;" vertex="1" parent="fZHhxiA2aUK1aU4LnNNK-28">
          <mxGeometry x="121" y="42" width="171" height="30" as="geometry" />
        </mxCell>
        <mxCell id="fZHhxiA2aUK1aU4LnNNK-22" value="Data Retirada" style="text;strokeColor=none;fillColor=none;spacingLeft=4;spacingRight=4;overflow=hidden;rotatable=0;points=[[0,0.5],[1,0.5]];portConstraint=eastwest;fontSize=12;whiteSpace=wrap;html=1;" vertex="1" parent="fZHhxiA2aUK1aU4LnNNK-28">
          <mxGeometry x="120" y="104" width="171" height="30" as="geometry" />
        </mxCell>
        <mxCell id="fZHhxiA2aUK1aU4LnNNK-23" value="Nome Livro" style="text;strokeColor=none;fillColor=none;spacingLeft=4;spacingRight=4;overflow=hidden;rotatable=0;points=[[0,0.5],[1,0.5]];portConstraint=eastwest;fontSize=12;whiteSpace=wrap;html=1;" vertex="1" parent="fZHhxiA2aUK1aU4LnNNK-28">
          <mxGeometry x="120" y="21" width="171" height="30" as="geometry" />
        </mxCell>
        <mxCell id="fZHhxiA2aUK1aU4LnNNK-24" value="Data Prevista Volta" style="text;strokeColor=none;fillColor=none;spacingLeft=4;spacingRight=4;overflow=hidden;rotatable=0;points=[[0,0.5],[1,0.5]];portConstraint=eastwest;fontSize=12;whiteSpace=wrap;html=1;" vertex="1" parent="fZHhxiA2aUK1aU4LnNNK-28">
          <mxGeometry x="120" y="124" width="171" height="30" as="geometry" />
        </mxCell>
        <mxCell id="fZHhxiA2aUK1aU4LnNNK-25" value="Quantidade reservada" style="text;strokeColor=none;fillColor=none;spacingLeft=4;spacingRight=4;overflow=hidden;rotatable=0;points=[[0,0.5],[1,0.5]];portConstraint=eastwest;fontSize=12;whiteSpace=wrap;html=1;" vertex="1" parent="fZHhxiA2aUK1aU4LnNNK-28">
          <mxGeometry x="120" y="82" width="171" height="30" as="geometry" />
        </mxCell>
        <mxCell id="fZHhxiA2aUK1aU4LnNNK-27" value="Formaa Retirada" style="text;strokeColor=none;fillColor=none;spacingLeft=4;spacingRight=4;overflow=hidden;rotatable=0;points=[[0,0.5],[1,0.5]];portConstraint=eastwest;fontSize=12;whiteSpace=wrap;html=1;" vertex="1" parent="fZHhxiA2aUK1aU4LnNNK-28">
          <mxGeometry x="120" y="165" width="171" height="30" as="geometry" />
        </mxCell>
        <mxCell id="fZHhxiA2aUK1aU4LnNNK-43" value="" style="group" vertex="1" connectable="0" parent="1">
          <mxGeometry x="-56" y="452" width="274" height="150" as="geometry" />
        </mxCell>
        <mxCell id="fZHhxiA2aUK1aU4LnNNK-30" value="&lt;span style=&quot;font-size: 19px;&quot;&gt;Tabela&lt;/span&gt;&lt;div&gt;&lt;span style=&quot;font-size: 19px;&quot;&gt;Novo Cliente&lt;/span&gt;&lt;/div&gt;" style="rounded=1;whiteSpace=wrap;html=1;" vertex="1" parent="fZHhxiA2aUK1aU4LnNNK-43">
          <mxGeometry y="5" width="120" height="60" as="geometry" />
        </mxCell>
        <mxCell id="fZHhxiA2aUK1aU4LnNNK-31" value="Nome" style="text;strokeColor=none;fillColor=none;spacingLeft=4;spacingRight=4;overflow=hidden;rotatable=0;points=[[0,0.5],[1,0.5]];portConstraint=eastwest;fontSize=12;whiteSpace=wrap;html=1;" vertex="1" parent="fZHhxiA2aUK1aU4LnNNK-43">
          <mxGeometry x="120" width="154" height="30" as="geometry" />
        </mxCell>
        <mxCell id="fZHhxiA2aUK1aU4LnNNK-32" value="Sobrenome" style="text;strokeColor=none;fillColor=none;spacingLeft=4;spacingRight=4;overflow=hidden;rotatable=0;points=[[0,0.5],[1,0.5]];portConstraint=eastwest;fontSize=12;whiteSpace=wrap;html=1;" vertex="1" parent="fZHhxiA2aUK1aU4LnNNK-43">
          <mxGeometry x="120" y="20" width="154" height="30" as="geometry" />
        </mxCell>
        <mxCell id="fZHhxiA2aUK1aU4LnNNK-33" value="Nascimento" style="text;strokeColor=none;fillColor=none;spacingLeft=4;spacingRight=4;overflow=hidden;rotatable=0;points=[[0,0.5],[1,0.5]];portConstraint=eastwest;fontSize=12;whiteSpace=wrap;html=1;" vertex="1" parent="fZHhxiA2aUK1aU4LnNNK-43">
          <mxGeometry x="120" y="40" width="154" height="30" as="geometry" />
        </mxCell>
        <mxCell id="fZHhxiA2aUK1aU4LnNNK-34" value="CPF" style="text;strokeColor=none;fillColor=none;spacingLeft=4;spacingRight=4;overflow=hidden;rotatable=0;points=[[0,0.5],[1,0.5]];portConstraint=eastwest;fontSize=12;whiteSpace=wrap;html=1;" vertex="1" parent="fZHhxiA2aUK1aU4LnNNK-43">
          <mxGeometry x="120" y="60" width="154" height="30" as="geometry" />
        </mxCell>
        <mxCell id="fZHhxiA2aUK1aU4LnNNK-35" value="Cep" style="text;strokeColor=none;fillColor=none;spacingLeft=4;spacingRight=4;overflow=hidden;rotatable=0;points=[[0,0.5],[1,0.5]];portConstraint=eastwest;fontSize=12;whiteSpace=wrap;html=1;" vertex="1" parent="fZHhxiA2aUK1aU4LnNNK-43">
          <mxGeometry x="120" y="81" width="154" height="30" as="geometry" />
        </mxCell>
        <mxCell id="fZHhxiA2aUK1aU4LnNNK-36" value="EndereÃ§o" style="text;strokeColor=none;fillColor=none;spacingLeft=4;spacingRight=4;overflow=hidden;rotatable=0;points=[[0,0.5],[1,0.5]];portConstraint=eastwest;fontSize=12;whiteSpace=wrap;html=1;" vertex="1" parent="fZHhxiA2aUK1aU4LnNNK-43">
          <mxGeometry x="120" y="101" width="154" height="30" as="geometry" />
        </mxCell>
        <mxCell id="fZHhxiA2aUK1aU4LnNNK-37" value="Data AfiliaÃ§Ã£o" style="text;strokeColor=none;fillColor=none;spacingLeft=4;spacingRight=4;overflow=hidden;rotatable=0;points=[[0,0.5],[1,0.5]];portConstraint=eastwest;fontSize=12;whiteSpace=wrap;html=1;" vertex="1" parent="fZHhxiA2aUK1aU4LnNNK-43">
          <mxGeometry x="120" y="120" width="154" height="30" as="geometry" />
        </mxCell>
        <mxCell id="fZHhxiA2aUK1aU4LnNNK-53" value="" style="group" vertex="1" connectable="0" parent="1">
          <mxGeometry x="295" y="118" width="360" height="155" as="geometry" />
        </mxCell>
        <mxCell id="fZHhxiA2aUK1aU4LnNNK-44" value="&lt;font style=&quot;font-size: 19px;&quot;&gt;tabela&lt;/font&gt;&lt;div&gt;&lt;span style=&quot;font-size: 19px;&quot;&gt;Cliente&lt;/span&gt;&lt;/div&gt;" style="rounded=1;whiteSpace=wrap;html=1;" vertex="1" parent="fZHhxiA2aUK1aU4LnNNK-53">
          <mxGeometry y="4" width="120" height="60" as="geometry" />
        </mxCell>
        <mxCell id="fZHhxiA2aUK1aU4LnNNK-45" value="Nome" style="text;strokeColor=none;fillColor=none;spacingLeft=4;spacingRight=4;overflow=hidden;rotatable=0;points=[[0,0.5],[1,0.5]];portConstraint=eastwest;fontSize=12;whiteSpace=wrap;html=1;" vertex="1" parent="fZHhxiA2aUK1aU4LnNNK-53">
          <mxGeometry x="120" width="240" height="30" as="geometry" />
        </mxCell>
        <mxCell id="fZHhxiA2aUK1aU4LnNNK-46" value="Sobrenome" style="text;strokeColor=none;fillColor=none;spacingLeft=4;spacingRight=4;overflow=hidden;rotatable=0;points=[[0,0.5],[1,0.5]];portConstraint=eastwest;fontSize=12;whiteSpace=wrap;html=1;" vertex="1" parent="fZHhxiA2aUK1aU4LnNNK-53">
          <mxGeometry x="120" y="17" width="240" height="30" as="geometry" />
        </mxCell>
        <mxCell id="fZHhxiA2aUK1aU4LnNNK-47" value="CPF" style="text;strokeColor=none;fillColor=none;spacingLeft=4;spacingRight=4;overflow=hidden;rotatable=0;points=[[0,0.5],[1,0.5]];portConstraint=eastwest;fontSize=12;whiteSpace=wrap;html=1;" vertex="1" parent="fZHhxiA2aUK1aU4LnNNK-53">
          <mxGeometry x="120" y="34" width="240" height="30" as="geometry" />
        </mxCell>
        <mxCell id="fZHhxiA2aUK1aU4LnNNK-48" value="Qntd de Livros ja Pegos" style="text;strokeColor=none;fillColor=none;spacingLeft=4;spacingRight=4;overflow=hidden;rotatable=0;points=[[0,0.5],[1,0.5]];portConstraint=eastwest;fontSize=12;whiteSpace=wrap;html=1;" vertex="1" parent="fZHhxiA2aUK1aU4LnNNK-53">
          <mxGeometry x="120" y="51" width="240" height="30" as="geometry" />
        </mxCell>
        <mxCell id="fZHhxiA2aUK1aU4LnNNK-49" value="Tem algum reservado" style="text;strokeColor=none;fillColor=none;spacingLeft=4;spacingRight=4;overflow=hidden;rotatable=0;points=[[0,0.5],[1,0.5]];portConstraint=eastwest;fontSize=12;whiteSpace=wrap;html=1;" vertex="1" parent="fZHhxiA2aUK1aU4LnNNK-53">
          <mxGeometry x="120" y="68" width="240" height="30" as="geometry" />
        </mxCell>
        <mxCell id="fZHhxiA2aUK1aU4LnNNK-50" value="Se tiver, Qual" style="text;strokeColor=none;fillColor=none;spacingLeft=4;spacingRight=4;overflow=hidden;rotatable=0;points=[[0,0.5],[1,0.5]];portConstraint=eastwest;fontSize=12;whiteSpace=wrap;html=1;" vertex="1" parent="fZHhxiA2aUK1aU4LnNNK-53">
          <mxGeometry x="120" y="87" width="240" height="30" as="geometry" />
        </mxCell>
        <mxCell id="fZHhxiA2aUK1aU4LnNNK-51" value="Tem alguma pendencia" style="text;strokeColor=none;fillColor=none;spacingLeft=4;spacingRight=4;overflow=hidden;rotatable=0;points=[[0,0.5],[1,0.5]];portConstraint=eastwest;fontSize=12;whiteSpace=wrap;html=1;" vertex="1" parent="fZHhxiA2aUK1aU4LnNNK-53">
          <mxGeometry x="120" y="106" width="240" height="30" as="geometry" />
        </mxCell>
        <mxCell id="fZHhxiA2aUK1aU4LnNNK-52" value="Quantas pendencias ja teve" style="text;strokeColor=none;fillColor=none;spacingLeft=4;spacingRight=4;overflow=hidden;rotatable=0;points=[[0,0.5],[1,0.5]];portConstraint=eastwest;fontSize=12;whiteSpace=wrap;html=1;" vertex="1" parent="fZHhxiA2aUK1aU4LnNNK-53">
          <mxGeometry x="120" y="125" width="240" height="30" as="geometry" />
        </mxCell>
        <mxCell id="fZHhxiA2aUK1aU4LnNNK-64" value="" style="group" vertex="1" connectable="0" parent="1">
          <mxGeometry x="139" y="635" width="273" height="125" as="geometry" />
        </mxCell>
        <mxCell id="fZHhxiA2aUK1aU4LnNNK-54" value="&lt;span style=&quot;font-size: 19px;&quot;&gt;Tabela&lt;/span&gt;&lt;div&gt;&lt;span style=&quot;font-size: 19px;&quot;&gt;Fornecedor&lt;/span&gt;&lt;/div&gt;" style="rounded=1;whiteSpace=wrap;html=1;movable=1;resizable=1;rotatable=1;deletable=1;editable=1;locked=0;connectable=1;" vertex="1" parent="fZHhxiA2aUK1aU4LnNNK-64">
          <mxGeometry y="9" width="120" height="60" as="geometry" />
        </mxCell>
        <mxCell id="fZHhxiA2aUK1aU4LnNNK-55" value="Nome Empresa" style="text;strokeColor=none;fillColor=none;spacingLeft=4;spacingRight=4;overflow=hidden;rotatable=0;points=[[0,0.5],[1,0.5]];portConstraint=eastwest;fontSize=12;whiteSpace=wrap;html=1;movable=0;resizable=0;deletable=0;editable=0;locked=1;connectable=0;" vertex="1" parent="fZHhxiA2aUK1aU4LnNNK-64">
          <mxGeometry x="120" width="153" height="30" as="geometry" />
        </mxCell>
        <mxCell id="fZHhxiA2aUK1aU4LnNNK-57" value="CNPJ" style="text;strokeColor=none;fillColor=none;spacingLeft=4;spacingRight=4;overflow=hidden;rotatable=0;points=[[0,0.5],[1,0.5]];portConstraint=eastwest;fontSize=12;whiteSpace=wrap;html=1;movable=0;resizable=0;deletable=0;editable=0;locked=1;connectable=0;" vertex="1" parent="fZHhxiA2aUK1aU4LnNNK-64">
          <mxGeometry x="120" y="19" width="153" height="30" as="geometry" />
        </mxCell>
        <mxCell id="fZHhxiA2aUK1aU4LnNNK-58" value="Quantidade ja Fornecida" style="text;strokeColor=none;fillColor=none;spacingLeft=4;spacingRight=4;overflow=hidden;rotatable=0;points=[[0,0.5],[1,0.5]];portConstraint=eastwest;fontSize=12;whiteSpace=wrap;html=1;movable=0;resizable=0;deletable=0;editable=0;locked=1;connectable=0;" vertex="1" parent="fZHhxiA2aUK1aU4LnNNK-64">
          <mxGeometry x="120" y="39" width="153" height="30" as="geometry" />
        </mxCell>
        <mxCell id="fZHhxiA2aUK1aU4LnNNK-59" value="Ultima data de entrega" style="text;strokeColor=none;fillColor=none;spacingLeft=4;spacingRight=4;overflow=hidden;rotatable=0;points=[[0,0.5],[1,0.5]];portConstraint=eastwest;fontSize=12;whiteSpace=wrap;html=1;movable=0;resizable=0;deletable=0;editable=0;locked=1;connectable=0;" vertex="1" parent="fZHhxiA2aUK1aU4LnNNK-64">
          <mxGeometry x="120" y="57" width="153" height="30" as="geometry" />
        </mxCell>
        <mxCell id="fZHhxiA2aUK1aU4LnNNK-60" value="EndereÃ§o empresa" style="text;strokeColor=none;fillColor=none;spacingLeft=4;spacingRight=4;overflow=hidden;rotatable=0;points=[[0,0.5],[1,0.5]];portConstraint=eastwest;fontSize=12;whiteSpace=wrap;html=1;movable=0;resizable=0;deletable=0;editable=0;locked=1;connectable=0;" vertex="1" parent="fZHhxiA2aUK1aU4LnNNK-64">
          <mxGeometry x="120" y="75" width="153" height="30" as="geometry" />
        </mxCell>
        <mxCell id="fZHhxiA2aUK1aU4LnNNK-61" value="Ultimo Comprador" style="text;strokeColor=none;fillColor=none;spacingLeft=4;spacingRight=4;overflow=hidden;rotatable=1;points=[[0,0.5],[1,0.5]];portConstraint=eastwest;fontSize=12;whiteSpace=wrap;html=1;movable=1;resizable=1;deletable=1;editable=1;locked=0;connectable=1;" vertex="1" parent="fZHhxiA2aUK1aU4LnNNK-64">
          <mxGeometry x="120" y="95" width="153" height="30" as="geometry" />
        </mxCell>
      </root>
    </mxGraphModel>
  </diagram>
</mxfile>
